
---------------------------------------------------------------------------
Screenshots
---------------------------------------------------------------------------
[img]http://lookpic.com/i/367/eEHUWNtJ.png[/img]
[img]http://lookpic.com/i/892/nZBgGwEU.png[/img]
[img]http://lookpic.com/i/308/32WmRmt.png[/img]
[img]http://lookpic.com/i/209/JX7pTquE.png[/img]
---------------------------------------------------------------------------
Cirque Du Freak The Vampires Assistant TS READNFO XVID - IMAGiNE
---------------------------------------------------------------------------
IMDB Link..............: http://www.imdb.com/title/tt0450405/
IMDB Ratings...........: 6.6/10   958 votes 
Genre..................: Action | Adventure | Comedy | Fantasy
Runtime................: 1h 43mn
Language...............: English
Format.................: Xvid | AVI
Size...................: 516.93 MB 
Ripper.................: IMAGiNE

---------------------------------------------------------------------------
Plot
---------------------------------------------------------------------------
A young boy named Darren Shan meets a mysterious man at a freak show
who turns out to be a Vampire. After a series of events Darren must
leave his normal life and go on the road with the Cirque Du Freak and
become a Vampire.

---------------------------------------------------------------------------
Cast
---------------------------------------------------------------------------
John C. Reilly	 ... 	Larten Crepsley

Josh Hutcherson	 ... 	Steve

Chris Massoglia	 ... 	Darren Shan

Jessica Carlson	 ... 	Rebecca

Michael Cerveris ... 	Mr. Tiny

Ray Stevenson	 ... 	Murlaugh

Patrick Fugit	 ... 	Evra the Snake Boy

Daniel Newman	 ... 	Pete

Morgan Saylor	 ... 	Annie

Don McManus	 ... 	Mr. Shan

Colleen Camp	 ... 	Mrs. Shan

Ken Watanabe	 ... 	Mr. Tall

Salma Hayek	 ... 	Madame Truska

Orlando Jones	 ... 	Alexander Ribs
	
Frankie Faison	 ... 	Rhamus Twobellies
 
---------------------------------------------------------------------------
DETAILS
---------------------------------------------------------------------------
Video
ID                               : 0
Format                           : MPEG-4 Visual
Format profile                   : Advanced Simple@L5
Format settings, BVOP            : Yes
Format settings, QPel            : No
Format settings, GMC             : No warppoints
Format settings, Matrix          : Default (MPEG)
Muxing mode                      : Packed bitstream
Codec ID                         : XVID
Codec ID/Hint                    : XviD
Duration                         : 1h 43mn
Bit rate                         : 552 Kbps
Width                            : 640 pixels
Height                           : 252 pixels
Display aspect ratio             : 2.540
Frame rate                       : 25.000 fps
Resolution                       : 24 bits
Colorimetry                      : 4:2:0
Scan type                        : Progressive
Bits/(Pixel*Frame)               : 0.137
Stream size                      : 408 MiB (80%)
Writing library                  : XviD 1.2.1 (UTC 2008-12-04)

Audio
ID                               : 1
Format                           : MPEG Audio
Format version                   : Version 1
Format profile                   : Layer 3
Codec ID                         : 55
Codec ID/Hint                    : MP3
Duration                         : 1h 43mn
Bit rate mode                    : Variable
Bit rate                         : 123 Kbps
Nominal bit rate                 : 128 Kbps
Channel(s)                       : 2 channels
Sampling rate                    : 44.1 KHz
Resolution                       : 16 bits
Stream size                      : 91.1 MiB (18%)
Alignment                        : Aligned on interleaves
Interleave, duration             : 26 ms (0.65 video frame)
Interleave, preload duration     : 523 ms
Writing library                  : LAME3.92
Encoding settings                : -m j -V 4 -q 2 -lowpass 17.5 --abr 128


NOTES:

IMAGiNE bringing you another release.....
Now first off got to say the source files we got were really dark.....done the best we could with the video
needed some cropping and tweaking done to it.Please see screen and check sample so you can see the
quality as we know it ain't great at all.
Audio wise ....thanks to our new friend for the hand and quality wise this is some nice direct audio..enjoy.

You keep supplying the cams and we'll keep supplying you the TS's
---------------------------------------------------------------------------
SEEDERS get it before the leechers come in :)
